<?xml version="1.0" standalone="no"?><!DOCTYPE svg PUBLIC "-//W3C//DTD SVG 1.1//EN" "http://www.w3.org/Graphics/SVG/1.1/DTD/svg11.dtd"><svg t="1555750961759" class="icon" style="" viewBox="0 0 1024 1024" version="1.1" xmlns="http://www.w3.org/2000/svg" p-id="1145" xmlns:xlink="http://www.w3.org/1999/xlink" width="200" height="200"><defs><style type="text/css"></style></defs><path d="M269.44 427.1488a13.056 13.056 0 0 0 18.4832-18.4448 13.056 13.056 0 1 0-18.4832 18.4448z m-16.256 101.0048a13.056 13.056 0 1 0-7.1552-17.024 13.056 13.056 0 0 0 7.1552 17.024z m65.8432 172.8896a13.056 13.056 0 0 0 24.0768-10.112 13.056 13.056 0 0 0-24.0896 10.112z m2.7392-358.784a13.056 13.056 0 0 0 24.0768-10.0992 13.056 13.056 0 1 0-24.0768 10.0992z m-58.624 269.824a13.056 13.056 0 1 0 26.112 0 13.056 13.056 0 1 0-26.112 0z m497.4592-80.0256a13.056 13.056 0 1 0-7.1552-17.024 13.056 13.056 0 0 0 7.1552 17.024zM402.5088 758.848a13.056 13.056 0 1 0 18.4832-18.4448 13.056 13.056 0 0 0-18.4832 18.4448z m331.8784-334.9504a13.056 13.056 0 1 0 13.056-13.056 13.056 13.056 0 0 0-13.056 13.056z m1.28 203.392a13.056 13.056 0 0 0 18.4832-18.4448 13.056 13.056 0 0 0-18.4832 18.4448z m-133.12-333.2096a13.056 13.056 0 0 0 18.4832-18.4448 13.056 13.056 0 0 0-18.4832 18.4448z m-9.8048 459.52a13.056 13.056 0 1 0 13.056-13.056 13.056 13.056 0 0 0-12.9408 13.0688z m84.9408-49.8176a13.056 13.056 0 1 0 24.064-10.112 13.056 13.056 0 1 0-23.9488 10.1248zM404.672 282.368a13.056 13.056 0 1 0 26.112 0 13.056 13.056 0 1 0-26.112 0z m275.8784 62.6432a13.056 13.056 0 0 0 24.0768-10.0992 13.056 13.056 0 1 0-24.0768 10.0992zM504.32 782.4256a13.056 13.056 0 1 0-7.1552-17.024 13.056 13.056 0 0 0 7.1552 17.024z m4.48-506.0352a13.056 13.056 0 1 0-7.1552-17.024 13.056 13.056 0 0 0 7.1552 17.024z m-218.88 32.9728L189.2736 208.64l-49.024-49.024A510.3488 510.3488 0 0 0 0 498.2656h211.6992a298.24 298.24 0 0 1 78.2464-188.9024z m-78.2464 216.32H0a510.336 510.336 0 0 0 140.2496 338.6368l149.6832-149.6832a298.24 298.24 0 0 1-78.2336-188.9024z m97.6768-235.8016a301.76 301.76 0 0 1 47.04-35.1616l2.56-92.8896 73.6128 60.16a301.1968 301.1968 0 0 1 65.664-10.24V0a510.336 510.336 0 0 0-338.5472 140.2496l49.024 49.024z m554.9824-149.632A510.3488 510.3488 0 0 0 525.7344 0v211.6992a298.24 298.24 0 0 1 188.9024 78.2464l149.696-149.696zM734.0672 714.6368l149.6832 149.6832A510.336 510.336 0 0 0 1024 525.7344H812.3008a298.24 298.24 0 0 1-78.2336 188.9024z m149.6832-554.9568L734.0672 309.3632a298.24 298.24 0 0 1 78.2464 188.9024H1024a510.3616 510.3616 0 0 0-140.2496-338.5856zM309.3632 734.0544L159.68 883.7504A510.3488 510.3488 0 0 0 498.2656 1024V812.3008a298.24 298.24 0 0 1-188.9024-78.2464z m405.2736 0a298.24 298.24 0 0 1-188.9024 78.2464V1024a510.336 510.336 0 0 0 338.5984-140.2496z m-273.92-358.656h46.08v139.52h-46.08v-139.52z m-70.656 139.52h42.752l19.008-75.1232h-43.0336z m205.0304 144.768a31.424 31.424 0 0 0 8.7552 1.28h59.6736l4.4544-34.7392H599.04l-45.1712-46.2592h99.1616v-36.8128h-118.1696v-17.5232l-45.7216-3.264v20.7872h-116.3904v36.8128h97.3824L424.96 626.2912h-48.9472l4.7488 34.7392h59.0848a31.9104 31.9104 0 0 0 9.2032-1.28 18.1504 18.1504 0 0 0 7.68-4.608L512 598.08l55.2192 56.9984a18.0096 18.0096 0 0 0 7.872 4.608z m-39.68-224.9088l3.84-13.0688h69.12v16.9216l-32.2432 36.5312-19.008-35.0336h-45.7088l21.6704 39.488h-37.4144l4.4544 34.7392h86.4a32.3072 32.3072 0 0 0 10.5344-1.7792 17.92 17.92 0 0 0 8.4608-5.9392l44.2368-49.5872a17.8304 17.8304 0 0 0 2.9696-5.0432 15.2576 15.2576 0 0 0 1.1904-5.6448v-38.8864a16.9344 16.9344 0 0 0-2.2272-8.6144 21.5936 21.5936 0 0 0-5.7856-6.528 25.472 25.472 0 0 0-8.0128-4.0064 30.848 30.848 0 0 0-8.96-1.28h-78.976l3.5584-11.52h-43.2896l-17.8176 59.3792h43.0592z m-122.624-58.496h-42.752l18.7008 55.8208h43.0464z" fill="#34a853" p-id="1146"></path></svg>